<?xml version="1.0" encoding="utf-8"?>
<!-- Generator: Adobe Illustrator 16.0.4, SVG Export Plug-In . SVG Version: 6.00 Build 0)  -->
<!DOCTYPE svg PUBLIC "-//W3C//DTD SVG 1.1//EN" "http://www.w3.org/Graphics/SVG/1.1/DTD/svg11.dtd">
<svg version="1.1" id="Layer_1" xmlns="http://www.w3.org/2000/svg" xmlns:xlink="http://www.w3.org/1999/xlink" x="0px" y="0px"
	 width="50px" height="50px" viewBox="0 0 50 50" enable-background="new 0 0 50 50" xml:space="preserve">
<path d="M17.186,27.621L40.008,7.538c0.805-0.709,2.031-0.631,2.739,0.174c0.653,0.743,0.636,1.843,0,2.563L22.664,33.098
	c-1.417,1.61-3.869,1.767-5.478,0.351c-1.608-1.416-1.766-3.868-0.349-5.478C16.942,27.852,17.07,27.725,17.186,27.621z
	 M6.772,42.67c-0.143,0.587,6.805,0.543,9.738-3.229c1.896-2.438,1.407-4.821-0.494-6.015c-2.493-1.563-5.129-0.057-5.433,1.78
	C9.902,39.311,9.811,40.577,6.772,42.67z"/>
</svg>
