<?xml version="1.0" encoding="UTF-8" standalone="no"?>
<!-- Created with Inkscape (http://www.inkscape.org/) -->

<svg
   xmlns:dc="http://purl.org/dc/elements/1.1/"
   xmlns:cc="http://creativecommons.org/ns#"
   xmlns:rdf="http://www.w3.org/1999/02/22-rdf-syntax-ns#"
   xmlns:svg="http://www.w3.org/2000/svg"
   xmlns="http://www.w3.org/2000/svg"
   version="1.1"
   width="1000"
   height="1000"
   id="svg2985">
  <defs
     id="defs5498" />
  <path
     d="m 136.94914,18.169491 a 13.694915,13.559322 0 1 1 -27.38983,0 13.694915,13.559322 0 1 1 27.38983,0 z"
     transform="matrix(9.1418423,0,0,9.3406244,-629.44131,327.22565)"
     id="path3048-8-7"
     style="fill:#000000" />
  <path
     d="m 136.94914,18.169491 a 13.694915,13.559322 0 1 1 -27.38983,0 13.694915,13.559322 0 1 1 27.38983,0 z"
     transform="matrix(4.5407062,0,0,4.6394401,374.43597,20.77171)"
     id="path3048"
     style="fill:#000000" />
  <path
     d="m 136.94914,18.169491 a 13.694915,13.559322 0 1 1 -27.38983,0 13.694915,13.559322 0 1 1 27.38983,0 z"
     transform="matrix(4.5407062,0,0,4.6394401,-495.57968,246.162)"
     id="path3048-2"
     style="fill:#000000" />
  <path
     d="m 136.94914,18.169491 a 13.694915,13.559322 0 1 1 -27.38983,0 13.694915,13.559322 0 1 1 27.38983,0 z"
     transform="matrix(7.5711656,0,0,7.7357943,-39.973264,735.70087)"
     id="path3048-3"
     style="fill:#000000" />
  <rect
     width="370.12015"
     height="18.025331"
     x="190.17566"
     y="278.4823"
     transform="matrix(0.91844445,0.39554998,-0.39554998,0.91844445,0,0)"
     id="rect3044"
     style="fill:#000000" />
  <rect
     width="584.53149"
     height="24.249123"
     x="2.9942639"
     y="704.73718"
     transform="matrix(0.73330786,-0.67989674,0.67989674,0.73330786,0,0)"
     id="rect3042"
     style="fill:#000000" />
  <rect
     width="532.90021"
     height="22.907475"
     x="699.68237"
     y="2.863385"
     transform="matrix(0.72008307,0.69388787,-0.69388787,0.72008307,0,0)"
     id="rect3046"
     style="fill:#000000" />
  <metadata
     id="metadata3089">
    <rdf:RDF>
      <cc:Work
         rdf:about="">
        <dc:title></dc:title>
      </cc:Work>
    </rdf:RDF>
  </metadata>
</svg>
