<?xml version="1.0" encoding="UTF-8" standalone="no"?>
<!-- Created with Inkscape (http://www.inkscape.org/) -->

<svg
   xmlns:dc="http://purl.org/dc/elements/1.1/"
   xmlns:cc="http://creativecommons.org/ns#"
   xmlns:rdf="http://www.w3.org/1999/02/22-rdf-syntax-ns#"
   xmlns:svg="http://www.w3.org/2000/svg"
   xmlns="http://www.w3.org/2000/svg"
   version="1.1"
   width="512"
   height="512"
   viewBox="0 0 512 512"
   id="svg2"
   style="fill:#000000">
  <metadata
     id="metadata73">
    <rdf:RDF>
      <cc:Work
         rdf:about="">
        <dc:format>image/svg+xml</dc:format>
        <dc:type
           rdf:resource="http://purl.org/dc/dcmitype/StillImage" />
        <dc:title></dc:title>
      </cc:Work>
    </rdf:RDF>
  </metadata>
  <defs
     id="defs71" />
  <path
     d="m 160,64 0,173.904 C 119.545,226.676 109.704,221 67,221 30.056,221 0,251.056 0,288 c 0,36.943 30.056,67 67,67 51.986,0 75.975,19.361 102.855,57.545 0.798,1.134 1.581,2.289 2.355,3.455 l -44.21,0 0,96 320,0 0,-96 -28.502,0 c 2.151,-31.831 11.096,-40.56 22.042,-51.223 8.445,-8.226 18.956,-18.464 26.638,-37.015 C 476.243,308.285 480,282.939 480,248 l 0,-24 0,-8.49 c 0,-30.969 -25.634,-56.163 -57.143,-56.163 -5.235,0 -10.438,0.712 -15.45,2.095 C 396.909,151.587 382.906,145.96 368,145.96 c -5.234,0 -10.438,0.712 -15.449,2.095 -10.499,-9.855 -24.503,-15.482 -39.408,-15.482 -9.018,0 -17.55,2.071 -25.143,5.744 L 288,64 C 288,28.653 259.347,0 224,0 188.654,0 160,28.653 160,64 z m 256,400 c 0,8.836 -7.163,16 -16,16 -8.837,0 -16,-7.164 -16,-16 0,-8.836 7.163,-16 16,-16 8.837,0 16,7.164 16,16 z M 256,67 l 0,124.734 0,3.266 32,0 0,-3.266 c 0,-13.323 11.279,-24.163 25.143,-24.163 8.685,0 16.645,4.234 21.293,11.327 l 8.122,12.394 12.979,-7.149 c 3.781,-2.083 8.091,-3.184 12.463,-3.184 8.685,0 16.644,4.234 21.291,11.326 l 8.122,12.395 12.98,-7.149 c 3.781,-2.083 8.091,-3.184 12.464,-3.184 13.863,0 25.143,10.84 25.143,24.163 l 0,8.49 0,24 c 0,63.281 -19.103,76.044 -32.975,89.556 -14.16,13.794 -29.992,29.245 -33.364,75.444 l -167.187,0 c -4.132,-7.878 -8.632,-15.35 -13.545,-22.329 C 167,345.475 131.156,320 67,320 51.009,320 38,304.99 38,289 c 0,-15.99 13.009,-30 29,-30 42.83,0 52.706,6.207 93,18.48 11.371,3.062 22.635,5.961 31.667,7.938 L 192,67 c 0,-17.645 14.355,-32 32,-32 17.645,0 32,14.355 32,32 z"
     id="path67" />
</svg>
